<svg width="127" height="157" viewBox="0 0 127 157" fill="none" xmlns="http://www.w3.org/2000/svg">
<g clip-path="url(#clip0_171_64)">
<path d="M97.5568 40.0174L82.9796 18.9602C81.8992 17.4028 80.4632 16.1253 78.7905 15.2335C77.1179 14.3418 75.2569 13.8614 73.3616 13.8323L45.6977 13.4355H45.6406C31.3583 13.4355 20.4001 15.8244 13.3424 27.4834C6.77168 38.3359 3.96875 56.8226 3.96875 89.2969V93.2656H13.0366L7.19931 123.031H15.2881L21.1254 93.2656H23.8125C30.2944 93.3235 36.5389 90.8295 41.1976 86.3223C45.4092 82.2925 48.447 76.7794 49.9832 70.3793L49.9971 70.3218L56.8042 37.7031H48.6956L42.2516 68.582C40.289 76.6882 34.4205 85.3281 23.8125 85.3281H11.9211C12.1367 57.2329 14.6948 40.5758 20.1327 31.5927C24.6968 24.0521 31.368 21.3755 45.6131 21.3717L73.2475 21.7686C73.8793 21.7782 74.4997 21.9383 75.0572 22.2356C75.6148 22.5328 76.0934 22.9587 76.4535 23.4779L92.9432 47.2951L115.094 50.987V55.1937L111.4 74.8938C110.31 80.7083 108.446 83.6372 100.804 84.5552L69.474 89.9153L69.2668 123.031H77.2043L77.3698 96.616L101.852 92.424C107.398 91.7421 111.49 89.9547 114.36 86.9613C116.813 84.4019 118.306 81.1322 119.202 76.3568L123.031 55.9314V44.263L97.5568 40.0174Z" fill="#FB8B24"/>
<path d="M94.976 119.256C95.872 119.256 96.6613 119.128 97.344 118.872C98.048 118.595 98.6987 118.168 99.296 117.592L101.952 120.472C100.331 122.328 97.9627 123.256 94.848 123.256C92.9067 123.256 91.1893 122.883 89.696 122.136C88.2027 121.368 87.0507 120.312 86.24 118.968C85.4293 117.624 85.024 116.099 85.024 114.392C85.024 112.707 85.4187 111.192 86.208 109.848C87.0187 108.483 88.1173 107.427 89.504 106.68C90.912 105.912 92.4907 105.528 94.24 105.528C95.8827 105.528 97.376 105.88 98.72 106.584C100.064 107.267 101.131 108.269 101.92 109.592C102.731 110.893 103.136 112.44 103.136 114.232L90.4 116.696C90.7627 117.549 91.328 118.189 92.096 118.616C92.8853 119.043 93.8453 119.256 94.976 119.256ZM94.24 109.304C92.9813 109.304 91.9573 109.709 91.168 110.52C90.3787 111.331 89.9627 112.451 89.92 113.88L98.304 112.248C98.0693 111.352 97.5893 110.637 96.864 110.104C96.1387 109.571 95.264 109.304 94.24 109.304ZM116.86 122.168C116.369 122.531 115.761 122.808 115.036 123C114.332 123.171 113.596 123.256 112.828 123.256C110.758 123.256 109.169 122.733 108.06 121.688C106.95 120.643 106.396 119.107 106.396 117.08V101.976H111.388V106.168H115.644V110.008H111.388V117.016C111.388 117.741 111.569 118.307 111.932 118.712C112.294 119.096 112.817 119.288 113.5 119.288C114.268 119.288 114.95 119.075 115.548 118.648L116.86 122.168Z" fill="#FB8B24"/>
</g>
<path d="M14.304 149.192C12.576 149.192 11.0293 148.819 9.664 148.072C8.32 147.325 7.264 146.301 6.496 145C5.728 143.677 5.344 142.184 5.344 140.52C5.344 138.856 5.728 137.373 6.496 136.072C7.264 134.749 8.32 133.725 9.664 133C11.0293 132.253 12.576 131.88 14.304 131.88C15.84 131.88 17.2053 132.189 18.4 132.808C19.616 133.427 20.5547 134.323 21.216 135.496L18.88 137C18.3467 136.189 17.6853 135.581 16.896 135.176C16.1067 134.771 15.232 134.568 14.272 134.568C13.1627 134.568 12.16 134.813 11.264 135.304C10.3893 135.795 9.696 136.499 9.184 137.416C8.69333 138.312 8.448 139.347 8.448 140.52C8.448 141.715 8.69333 142.771 9.184 143.688C9.696 144.584 10.3893 145.277 11.264 145.768C12.16 146.259 13.1627 146.504 14.272 146.504C15.232 146.504 16.1067 146.301 16.896 145.896C17.6853 145.491 18.3467 144.883 18.88 144.072L21.216 145.544C20.5547 146.717 19.616 147.624 18.4 148.264C17.2053 148.883 15.84 149.192 14.304 149.192ZM34.1273 149.192C32.4419 149.192 30.9273 148.819 29.5833 148.072C28.2393 147.325 27.1833 146.301 26.4153 145C25.6686 143.677 25.2953 142.184 25.2953 140.52C25.2953 138.856 25.6686 137.373 26.4153 136.072C27.1833 134.749 28.2393 133.725 29.5833 133C30.9273 132.253 32.4419 131.88 34.1273 131.88C35.8126 131.88 37.3166 132.253 38.6393 133C39.9833 133.725 41.0286 134.749 41.7753 136.072C42.5433 137.373 42.9273 138.856 42.9273 140.52C42.9273 142.184 42.5433 143.677 41.7753 145C41.0286 146.301 39.9833 147.325 38.6393 148.072C37.3166 148.819 35.8126 149.192 34.1273 149.192ZM34.1273 146.504C35.2153 146.504 36.1859 146.259 37.0393 145.768C37.9139 145.256 38.5966 144.552 39.0873 143.656C39.5779 142.739 39.8233 141.693 39.8233 140.52C39.8233 139.347 39.5779 138.312 39.0873 137.416C38.5966 136.499 37.9139 135.795 37.0393 135.304C36.1859 134.813 35.2153 134.568 34.1273 134.568C33.0393 134.568 32.0579 134.813 31.1833 135.304C30.3299 135.795 29.6473 136.499 29.1353 137.416C28.6446 138.312 28.3993 139.347 28.3993 140.52C28.3993 141.693 28.6446 142.739 29.1353 143.656C29.6473 144.552 30.3299 145.256 31.1833 145.768C32.0579 146.259 33.0393 146.504 34.1273 146.504ZM52.0398 134.888C52.5731 133.907 53.3624 133.16 54.4078 132.648C55.4531 132.136 56.7224 131.88 58.2158 131.88V134.856C58.0451 134.835 57.8104 134.824 57.5118 134.824C55.8478 134.824 54.5358 135.325 53.5758 136.328C52.6371 137.309 52.1678 138.717 52.1678 140.552V149H49.0958V132.04H52.0398V134.888ZM72.978 131.88C75.1327 131.88 76.8393 132.509 78.098 133.768C79.378 135.005 80.018 136.829 80.018 139.24V149H76.946V139.592C76.946 137.949 76.5513 136.712 75.762 135.88C74.9727 135.048 73.842 134.632 72.37 134.632C70.706 134.632 69.394 135.123 68.434 136.104C67.474 137.064 66.994 138.451 66.994 140.264V149H63.922V132.04H66.866V134.6C67.4847 133.725 68.3167 133.053 69.362 132.584C70.4287 132.115 71.634 131.88 72.978 131.88ZM95.365 146.504C97.3917 146.504 99.0237 145.821 100.261 144.456L101.925 146.44C101.178 147.336 100.229 148.019 99.077 148.488C97.9463 148.957 96.677 149.192 95.269 149.192C93.477 149.192 91.8877 148.829 90.501 148.104C89.1143 147.357 88.037 146.323 87.269 145C86.5223 143.677 86.149 142.184 86.149 140.52C86.149 138.877 86.5117 137.395 87.237 136.072C87.9837 134.749 88.997 133.725 90.277 133C91.5783 132.253 93.0397 131.88 94.661 131.88C96.197 131.88 97.5943 132.232 98.853 132.936C100.112 133.619 101.114 134.589 101.861 135.848C102.608 137.107 102.992 138.557 103.013 140.2L89.541 142.824C89.9677 143.997 90.6823 144.904 91.685 145.544C92.709 146.184 93.9357 146.504 95.365 146.504ZM94.661 134.472C93.5943 134.472 92.6343 134.717 91.781 135.208C90.949 135.699 90.2983 136.392 89.829 137.288C89.3597 138.163 89.125 139.187 89.125 140.36V140.68L99.973 138.632C99.6957 137.395 99.077 136.392 98.117 135.624C97.157 134.856 96.005 134.472 94.661 134.472ZM112.175 134.888C112.708 133.907 113.497 133.16 114.543 132.648C115.588 132.136 116.857 131.88 118.351 131.88V134.856C118.18 134.835 117.945 134.824 117.647 134.824C115.983 134.824 114.671 135.325 113.711 136.328C112.772 137.309 112.303 138.717 112.303 140.552V149H109.231V132.04H112.175V134.888Z" fill="white"/>
<defs>
<clipPath id="clip0_171_64">
<rect width="127" height="127" fill="white"/>
</clipPath>
</defs>
</svg>
